<?xml version="1.0" encoding="UTF-8"?>
<svg id="Layer_1" xmlns="http://www.w3.org/2000/svg" version="1.1" viewBox="0 0 113.21 152.94">
  <!-- Generator: Adobe Illustrator 29.5.1, SVG Export Plug-In . SVG Version: 2.1.0 Build 141)  -->
  <defs>
    <style>
      .st0 {
        fill: #740003;
        stroke: #740003;
      }

      .st0, .st1, .st2, .st3, .st4, .st5, .st6, .st7, .st8, .st9, .st10, .st11, .st12 {
        stroke-miterlimit: 10;
      }

      .st0, .st1, .st2, .st3, .st6, .st7, .st10 {
        stroke-width: .1px;
      }

      .st1, .st2, .st5, .st8 {
        stroke: #000;
      }

      .st1, .st4 {
        fill: none;
      }

      .st3 {
        fill: #001ca1;
        stroke: #001ca1;
      }

      .st4 {
        stroke: #009f43;
        stroke-width: .5px;
      }

      .st6 {
        fill: #c1272d;
      }

      .st6, .st7 {
        stroke: #c71e1f;
      }

      .st7, .st10, .st12 {
        fill: #fff;
      }

      .st8 {
        fill: #c69c6d;
      }

      .st8, .st9, .st11 {
        stroke-width: .05px;
      }

      .st9 {
        fill: #e8d0ba;
      }

      .st9, .st11 {
        stroke: #c69c6d;
      }

      .st10 {
        stroke: #fff;
      }

      .st11 {
        fill: #42210b;
      }

      .st12 {
        stroke: #07006b;
        stroke-width: .75px;
      }
    </style>
  </defs>
  <g>
    <circle class="st5" cx="56.61" cy="24.56" r="15.54"/>
    <path class="st5" d="M84.58,53.85v.83c0-.81-.08-1.61-.24-2.38.16.49.24,1.01.24,1.55Z"/>
    <path class="st5" d="M84.58,54.68v32.8c0,2.8-2.3,5.09-5.1,5.09s-5.09-2.29-5.09-5.09v-20.94c-.59.09-1.19.14-1.81.14h-1.02v37.87h-.05c.04.21.05.42.05.64v33.62c0,2.8-2.29,5.1-5.1,5.1h-2.85c-2.8,0-5.09-2.3-5.09-5.1v-33.62c0-.22,0-.43.05-.64h-3.93c.04.21.05.42.05.64v33.62c0,2.8-2.29,5.1-5.09,5.1h-2.85c-2.81,0-5.1-2.3-5.1-5.1v-33.62c0-.22,0-.43.05-.64h-.05v-37.87h-1.02c-.62,0-1.22-.05-1.81-.14v21.75c0,2.8-2.29,5.09-5.09,5.09s-5.1-2.29-5.1-5.09v-33.66c.01-3.28,1.36-6.26,3.52-8.43,2.18-2.17,5.18-3.52,8.48-3.52h31.95c5.77,0,10.63,4.13,11.75,9.59v.03c.16.77.24,1.57.24,2.38h.01Z"/>
  </g>
  <g>
    <circle class="st7" cx="57.08" cy="58.01" r="7.29"/>
    <path class="st3" d="M56.34,52.69c-.1.17.05.31.16.77.1.38.07.84.03,1.78-.04.86-.1,1.02-.19,1.18-.08.13-.28.49-.67.6-.38.11-.63-.1-.8.06-.15.14-.16.48,0,.65.34.37,1.57.13,1.94-.53.12-.21.15-.46.29-.48s.24.2.41.38c.49.54,1.45.69,1.73.4.13-.13.14-.39.04-.52-.04-.05-.09-.08-.4-.16-.35-.08-.41-.07-.53-.11-.28-.09-.45-.31-.55-.45-.5-.66-.44-1.93-.15-2.89.1-.32.19-.52.09-.69-.23-.38-1.2-.37-1.4,0h0Z"/>
    <path class="st6" d="M54.77,54.63c.53.05.79,1.19,1.13,2.64.41,1.78.73,3.13.13,3.73s-1.36-.15-2.67.58c-.66.37-.85.77-1.12.66-.53-.22-.41-2.03-.23-2.83.07-.3.18-.66.63-1.59,1.03-2.11,1.58-3.24,2.13-3.19Z"/>
    <path class="st6" d="M59.38,54.52c-.53.05-.79,1.19-1.13,2.64-.41,1.78-.73,3.13-.13,3.73s1.36-.15,2.67.58c.66.37.85.77,1.12.66.53-.22.41-2.03.23-2.83-.07-.3-.18-.66-.63-1.59-1.03-2.11-1.58-3.24-2.13-3.19Z"/>
  </g>
  <g>
    <circle class="st7" cx="57.05" cy="27.14" r="4.6"/>
    <path class="st8" d="M55.55,23.31c-.36.32.34,1.06.19,2.35-.07.61-.17,1.41-.73,1.88-.15.13-.4.28-.56.62-.16.33-.14.65-.14.76.03.4.22.99.69,1.22.4.2.58-.11,1.09.12.18.08.33.2.65.29.17.05.3.06.4.06.07,0,.25,0,.44-.09.26-.11.23-.22.44-.31.23-.1.33,0,.65-.04.04,0,.31-.05.55-.21.37-.24.61-.71.59-1.17,0-.37-.18-.63-.34-.88-.22-.34-.41-.46-.59-.65-.5-.52-.6-1.2-.67-1.7-.19-1.28.43-1.83.08-2.18-.24-.24-.52,0-1.85-.08-.62-.04-.75-.11-.88.01h-.01Z"/>
    <path class="st11" d="M55.14,29.76c0-.11.21-.22.38-.21.11.01.18.07.36.23.43.38.49.41.48.43-.06.12-1.23-.2-1.22-.46h0Z"/>
    <path class="st11" d="M59.01,29.72c0-.11-.21-.22-.38-.21-.11.01-.18.07-.36.23-.43.38-.49.41-.48.43.06.12,1.23-.2,1.22-.46h0Z"/>
    <path class="st9" d="M54.67,29.41c.11.04.24-.08.31-.15.05-.04.14-.13.16-.25.02-.09,0-.15-.03-.25,0,0-.05-.21-.03-.46.04-.39.38-.61.34-.66-.03-.03-.19.07-.28.13-.07.06-.14.12-.23.24-.05.07-.18.25-.3.55-.09.23-.14.35-.12.51,0,.06.03.29.17.34h0Z"/>
    <path class="st9" d="M59.36,29.41c-.11.04-.24-.08-.31-.15-.05-.04-.14-.13-.16-.25-.02-.09,0-.15.03-.25,0,0,.05-.21.03-.46-.04-.39-.38-.61-.34-.66.03-.03.19.07.28.13.07.06.14.12.23.24.05.07.18.25.3.55.09.23.14.35.12.51,0,.06-.03.29-.17.34h0Z"/>
    <path class="st9" d="M55.97,23.49c-.18.24.11.53.23,1.18.19,1.01-.19,2.05-.31,2.36-.14.38-.32.7-.28,1.19.03.37.17.62.2.67.06.11.38.66,1.02.75.56.07,1.11-.25,1.33-.68.13-.26.13-.5.12-.77,0-.5-.15-.81-.27-1.16-.07-.21-.41-1.29-.24-2.41.1-.61.29-.9.1-1.12-.14-.17-.41-.17-.94-.17-.57,0-.85,0-.98.17h.02Z"/>
  </g>
  <g>
    <circle class="st7" cx="64.83" cy="21.12" r="4.6"/>
    <g>
      <path class="st1" d="M68.85,21.22c-2.33-2.27-5.93-2.37-8.03-.2,2.22,2.28,5.81,2.37,8.03.2"/>
      <circle class="st1" cx="64.83" cy="21.12" r="1.61"/>
      <circle class="st2" cx="64.83" cy="21.12" r="1.06"/>
      <circle class="st10" cx="65.49" cy="20.36" r=".3"/>
    </g>
  </g>
  <g>
    <circle class="st7" cx="54.31" cy="16.99" r="4.6"/>
    <path class="st12" d="M51.77,14.38c2.51-.77,4.78.48,5.21,2.13.32,1.22-.28,3.03-1.79,3.55-1.42.49-3.24-.29-3.58-1.69-.27-1.11.44-2.5,1.59-2.82.96-.26,1.95.32,2.2,1.31.21.79-.25,1.6-1.02,1.81-.61.17-1.25-.21-1.41-.84-.12-.48.22-1.11.65-1.16.32-.03.75.24.73.6,0,.22-.19.42-.44.52"/>
  </g>
  <circle class="st7" cx="57.79" cy="84.57" r="7.29"/>
  <path class="st0" d="M56.67,78.79c.21.14.06.6.26,1.37.02.09.25.96.85,1.61.44.47.92.65,1.44.83.8.28,1.33.22,1.47.66,0,.01.12.3-.01.49-.36.49-2.31.09-3.29-1.1-.23-.28-.1-.24-.57-.95-.8-1.22-1.27-1.5-1.21-1.95.03-.26.24-.61,1.07-.96Z"/>
  <path class="st0" d="M57.74,83.85c.21-.52-.4-.86-.48-1.68-.13-1.2.85-2.83,2.29-3.11,1.61-.31,2.86,1.22,2.91,1.29,1.6,2.04.13,5.17-.09,5.64-.12.24-1.98,4.06-4.74,3.81-1-.09-2.31-.73-2.7-1.96-.34-1.07.07-2.33.84-2.97.81-.67,1.73-.42,1.98-1.02h0Z"/>
  <path class="st0" d="M59.97,86.24c-.21.2-.64-.1-1.51-.08-.11,0-1.08.01-1.93.52-.63.37-.95.87-1.3,1.4-.54.83-.63,1.45-1.13,1.49-.02,0-.35.06-.51-.15-.41-.54.6-2.65,2.13-3.44.36-.19.28-.05,1.16-.39,1.51-.57,1.94-1.03,2.4-.84.26.11.56.44.68,1.48Z"/>
  <path class="st4" d="M58.12,82.91c1.62-.5,3.09.31,3.36,1.38.21.79-.18,1.96-1.16,2.29-.92.32-2.09-.19-2.31-1.09-.17-.72.28-1.61,1.03-1.82.62-.17,1.26.21,1.42.85.14.51-.16,1.03-.66,1.17-.39.11-.81-.14-.91-.54-.08-.31.14-.72.42-.75.21-.02.48.15.47.39,0,.14-.12.27-.28.34"/>
</svg>