<?xml version="1.0" encoding="UTF-8"?>
<svg id="Layer_1" xmlns="http://www.w3.org/2000/svg" version="1.1" viewBox="0 0 113.21 152.94">
  <!-- Generator: Adobe Illustrator 29.5.1, SVG Export Plug-In . SVG Version: 2.1.0 Build 141)  -->
  <defs>
    <style>
      .st0, .st1, .st2, .st3, .st4, .st5, .st6, .st7, .st8, .st9, .st10, .st11, .st12 {
        stroke-miterlimit: 10;
      }

      .st0, .st1, .st2, .st3, .st4, .st6, .st7, .st10, .st12 {
        stroke-width: .1px;
      }

      .st0, .st2, .st5, .st8 {
        stroke: #000;
      }

      .st0, .st4 {
        fill: none;
      }

      .st1 {
        fill: #f15a24;
        stroke: #f15a24;
      }

      .st3 {
        fill: #001ca1;
        stroke: #001ca1;
      }

      .st4, .st6, .st7 {
        stroke: #c71e1f;
      }

      .st6 {
        fill: #c1272d;
      }

      .st7, .st10 {
        fill: #fff;
      }

      .st8 {
        fill: #c69c6d;
      }

      .st8, .st9, .st11 {
        stroke-width: .05px;
      }

      .st9 {
        fill: #e8d0ba;
      }

      .st9, .st11 {
        stroke: #c69c6d;
      }

      .st10 {
        stroke: #fff;
      }

      .st11 {
        fill: #42210b;
      }

      .st12 {
        fill: #fcee21;
        stroke: #fcee21;
      }
    </style>
  </defs>
  <g>
    <circle class="st5" cx="-210.28" cy="24.65" r="15.54"/>
    <path class="st5" d="M-182.31,53.94v.83c0-.81-.08-1.61-.24-2.38.16.49.24,1.01.24,1.55Z"/>
    <path class="st5" d="M-182.31,54.77v32.8c0,2.8-2.3,5.09-5.1,5.09s-5.09-2.29-5.09-5.09v-20.94c-.59.09-1.19.14-1.81.14h-1.02v37.87h-.05c.04.21.05.42.05.64v33.62c0,2.8-2.29,5.1-5.1,5.1h-2.85c-2.8,0-5.09-2.3-5.09-5.1v-33.62c0-.22,0-.43.05-.64h-3.93c.04.21.05.42.05.64v33.62c0,2.8-2.29,5.1-5.09,5.1h-2.85c-2.81,0-5.1-2.3-5.1-5.1v-33.62c0-.22,0-.43.05-.64h-.05v-37.87h-1.02c-.62,0-1.22-.05-1.81-.14v21.75c0,2.8-2.29,5.09-5.09,5.09s-5.1-2.29-5.1-5.09v-33.66c.01-3.28,1.36-6.26,3.52-8.43,2.18-2.17,5.18-3.52,8.48-3.52h31.95c5.77,0,10.63,4.13,11.75,9.59v.03c.16.77.24,1.57.24,2.38h.01Z"/>
  </g>
  <circle class="st10" cx="-203.03" cy="20.52" r=".26"/>
  <g>
    <circle class="st7" cx="-202.53" cy="21.96" r="4.6"/>
    <g>
      <path class="st0" d="M-198.51,22.06c-2.33-2.27-5.93-2.37-8.03-.2,2.22,2.28,5.81,2.37,8.03.2"/>
      <circle class="st0" cx="-202.53" cy="21.96" r="1.61"/>
      <circle class="st2" cx="-202.53" cy="21.96" r="1.06"/>
      <circle class="st10" cx="-201.88" cy="21.2" r=".3"/>
    </g>
  </g>
  <g>
    <circle class="st7" cx="-209.81" cy="28.59" r="4.6"/>
    <path class="st8" d="M-211.32,24.76c-.36.32.34,1.06.19,2.35-.07.61-.17,1.41-.73,1.88-.15.13-.4.28-.56.62-.16.33-.14.65-.14.76.03.4.22.99.69,1.22.4.2.58-.11,1.09.12.18.08.33.2.65.29.17.05.3.06.4.06.07,0,.25,0,.44-.09.26-.11.23-.22.44-.31.23-.1.33,0,.65-.04.04,0,.31-.05.55-.21.37-.24.61-.71.59-1.17,0-.37-.18-.63-.34-.88-.22-.34-.41-.46-.59-.65-.5-.52-.6-1.2-.67-1.7-.19-1.28.43-1.83.08-2.18-.24-.24-.52,0-1.85-.08-.62-.04-.75-.11-.88.01h-.01Z"/>
    <path class="st11" d="M-211.73,31.21c0-.11.21-.22.38-.21.11.01.18.07.36.23.43.38.49.41.48.43-.06.12-1.23-.2-1.22-.46h0Z"/>
    <path class="st11" d="M-207.86,31.17c0-.11-.21-.22-.38-.21-.11.01-.18.07-.36.23-.43.38-.49.41-.48.43.06.12,1.23-.2,1.22-.46h0Z"/>
    <path class="st9" d="M-212.2,30.86c.11.04.24-.08.31-.15.05-.04.14-.13.16-.25.02-.09,0-.15-.03-.25,0,0-.05-.21-.03-.46.04-.39.38-.61.34-.66-.03-.03-.19.07-.28.13-.07.06-.14.12-.23.24-.05.07-.18.25-.3.55-.09.23-.14.35-.12.51,0,.06.03.29.17.34h0Z"/>
    <path class="st9" d="M-207.51,30.86c-.11.04-.24-.08-.31-.15-.05-.04-.14-.13-.16-.25-.02-.09,0-.15.03-.25,0,0,.05-.21.03-.46-.04-.39-.38-.61-.34-.66.03-.03.19.07.28.13.07.06.14.12.23.24.05.07.18.25.3.55.09.23.14.35.12.51,0,.06-.03.29-.17.34h0Z"/>
    <path class="st9" d="M-210.9,24.94c-.18.24.11.53.23,1.18.19,1.01-.19,2.05-.31,2.36-.14.38-.32.7-.28,1.19.03.37.17.62.2.67.06.11.38.66,1.02.75.56.07,1.11-.25,1.33-.68.13-.26.13-.5.12-.77,0-.5-.15-.81-.27-1.16-.07-.21-.41-1.29-.24-2.41.1-.61.29-.9.1-1.12-.14-.17-.41-.17-.94-.17-.57,0-.85,0-.98.17h.02Z"/>
  </g>
  <g>
    <circle class="st7" cx="-187.5" cy="84.26" r="4.6"/>
    <path class="st6" d="M-185.11,85.82c-.04.31-.1.68-.4,1.06-.37.48-1.15.88-2.03.87-1.29,0-2.24-.88-2.39-1.56-.04-.16-.03-.33-.03-.38.01-.45.19-.67.38-1.23.1-.29.15-.51.2-.73.13-.6.16-1.33.26-1.33.06,0,.06.26.28.64.07.12.39.66.77.64.08,0,.15-.03.19-.06-.04-.12-.09-.31-.1-.53-.02-.26-.03-.49.09-.76.08-.19.21-.37.17-.63,0,0,0-.03-.01-.06-.12-.46-.82-1-.8-1.02s.34.17,1.01.62c0,0,1.02.7,1.4,1.29h0s1.2,1.56,1.02,3.17h0Z"/>
    <path class="st1" d="M-188.91,84.1c-.06.03.05.17.08.38.04.29-.12.46-.28.83-.09.2-.21.48-.23.78,0,.18,0,.77.56,1.22.15.12.59.43,1.25.45.62.02,1.15-.23,1.47-.53.72-.67.38-1.66.3-1.89-.12-.35-.21-.31-.59-1.14-.28-.62-.39-.89-.39-.89-.21-.5-.28-.7-.34-.69-.07,0-.03.36-.08.99-.07.87-.21.97-.3,1.01-.24.1-.61-.06-.81-.14-.4-.17-.58-.41-.66-.37h.02Z"/>
    <path class="st12" d="M-188.46,85c-.12.06.07.32-.04.75-.08.34-.25.36-.33.71-.04.17-.12.47.05.75.22.37.78.56,1.25.56.71,0,1.27-.45,1.47-.89.25-.53-.04-1.04-.09-1.14-.1-.19-.15-.17-.28-.38-.36-.57-.26-1.11-.32-1.11-.09,0-.05,1.26-.53,1.37-.4.09-.97-.71-1.18-.62Z"/>
    <path class="st4" d="M-185.06,85.82c-.04.31-.1.68-.4,1.06-.37.48-1.15.88-2.03.87-1.29,0-2.24-.88-2.39-1.56-.04-.16-.03-.33-.03-.38.01-.45.19-.67.38-1.23.1-.29.15-.51.2-.73.13-.6.16-1.33.26-1.33.06,0,.06.26.28.64.07.12.39.66.77.64.08,0,.15-.03.19-.06-.04-.12-.09-.31-.1-.53-.02-.26-.03-.49.09-.76.08-.19.21-.37.17-.63,0,0,0-.03-.01-.06-.12-.46-.82-1-.8-1.02s.34.17,1.01.62c0,0,1.02.7,1.4,1.29h0s1.2,1.56,1.02,3.17h0Z"/>
  </g>
  <g>
    <circle class="st7" cx="-209.81" cy="56.28" r="7.29"/>
    <path class="st3" d="M-210.55,50.95c-.1.17.05.31.16.77.1.38.07.84.03,1.78-.04.86-.1,1.02-.19,1.18-.08.13-.28.49-.67.6-.38.11-.63-.1-.8.06-.15.14-.16.48,0,.65.34.37,1.57.13,1.94-.53.12-.21.15-.46.29-.48s.24.2.41.38c.49.54,1.45.69,1.73.4.13-.13.14-.39.04-.52-.04-.05-.09-.08-.4-.16-.35-.08-.41-.07-.53-.11-.28-.09-.45-.31-.55-.45-.5-.66-.44-1.93-.15-2.89.1-.32.19-.52.09-.69-.23-.38-1.2-.37-1.4,0h0Z"/>
    <path class="st6" d="M-212.12,52.9c.53.05.79,1.19,1.13,2.64.41,1.78.73,3.13.13,3.73s-1.36-.15-2.67.58c-.66.37-.85.77-1.12.66-.53-.22-.41-2.03-.23-2.83.07-.3.18-.66.63-1.59,1.03-2.11,1.58-3.24,2.13-3.19Z"/>
    <path class="st6" d="M-207.5,52.79c-.53.05-.79,1.19-1.13,2.64-.41,1.78-.73,3.13-.13,3.73s1.36-.15,2.67.58c.66.37.85.77,1.12.66.53-.22.41-2.03.23-2.83-.07-.3-.18-.66-.63-1.59-1.03-2.11-1.58-3.24-2.13-3.19Z"/>
  </g>
  <g>
    <circle class="st5" cx="-77.07" cy="24.65" r="15.54"/>
    <path class="st5" d="M-49.1,53.94v.83c0-.81-.08-1.61-.24-2.38.16.49.24,1.01.24,1.55Z"/>
    <path class="st5" d="M-49.1,54.77v32.8c0,2.8-2.3,5.09-5.1,5.09s-5.09-2.29-5.09-5.09v-20.94c-.59.09-1.19.14-1.81.14h-1.02v37.87h-.05c.04.21.05.42.05.64v33.62c0,2.8-2.29,5.1-5.1,5.1h-2.85c-2.8,0-5.09-2.3-5.09-5.1v-33.62c0-.22,0-.43.05-.64h-3.93c.04.21.05.42.05.64v33.62c0,2.8-2.29,5.1-5.09,5.1h-2.85c-2.81,0-5.1-2.3-5.1-5.1v-33.62c0-.22,0-.43.05-.64h-.05v-37.87h-1.02c-.62,0-1.22-.05-1.81-.14v21.75c0,2.8-2.29,5.09-5.09,5.09s-5.1-2.29-5.1-5.09v-33.66c.01-3.28,1.36-6.26,3.52-8.43,2.18-2.17,5.18-3.52,8.48-3.52h31.95c5.77,0,10.63,4.13,11.75,9.59v.03c.16.77.24,1.57.24,2.38h.01Z"/>
  </g>
  <circle class="st10" cx="-69.82" cy="20.52" r=".26"/>
  <g>
    <circle class="st7" cx="-69.32" cy="21.96" r="4.6"/>
    <g>
      <path class="st0" d="M-65.3,22.06c-2.33-2.27-5.93-2.37-8.03-.2,2.22,2.28,5.81,2.37,8.03.2"/>
      <circle class="st0" cx="-69.32" cy="21.96" r="1.61"/>
      <circle class="st2" cx="-69.32" cy="21.96" r="1.06"/>
      <circle class="st10" cx="-68.67" cy="21.2" r=".3"/>
    </g>
  </g>
  <g>
    <circle class="st7" cx="-54.29" cy="84.26" r="4.6"/>
    <path class="st6" d="M-51.9,85.82c-.04.31-.1.68-.4,1.06-.37.48-1.15.88-2.03.87-1.29,0-2.24-.88-2.39-1.56-.04-.16-.03-.33-.03-.38.01-.45.19-.67.38-1.23.1-.29.15-.51.2-.73.13-.6.16-1.33.26-1.33.06,0,.06.26.28.64.07.12.39.66.77.64.08,0,.15-.03.19-.06-.04-.12-.09-.31-.1-.53-.02-.26-.03-.49.09-.76.08-.19.21-.37.17-.63,0,0,0-.03-.01-.06-.12-.46-.82-1-.8-1.02s.34.17,1.01.62c0,0,1.02.7,1.4,1.29h0s1.2,1.56,1.02,3.17h0Z"/>
    <path class="st1" d="M-55.7,84.1c-.06.03.05.17.08.38.04.29-.12.46-.28.83-.09.2-.21.48-.23.78,0,.18,0,.77.56,1.22.15.12.59.43,1.25.45.62.02,1.15-.23,1.47-.53.72-.67.38-1.66.3-1.89-.12-.35-.21-.31-.59-1.14-.28-.62-.39-.89-.39-.89-.21-.5-.28-.7-.34-.69-.07,0-.03.36-.08.99-.07.87-.21.97-.3,1.01-.24.1-.61-.06-.81-.14-.4-.17-.58-.41-.66-.37h.02Z"/>
    <path class="st12" d="M-55.25,85c-.12.06.07.32-.04.75-.08.34-.25.36-.33.71-.04.17-.12.47.05.75.22.37.78.56,1.25.56.71,0,1.27-.45,1.47-.89.25-.53-.04-1.04-.09-1.14-.1-.19-.15-.17-.28-.38-.36-.57-.26-1.11-.32-1.11-.09,0-.05,1.26-.53,1.37-.4.09-.97-.71-1.18-.62Z"/>
    <path class="st4" d="M-51.85,85.82c-.04.31-.1.68-.4,1.06-.37.48-1.15.88-2.03.87-1.29,0-2.24-.88-2.39-1.56-.04-.16-.03-.33-.03-.38.01-.45.19-.67.38-1.23.1-.29.15-.51.2-.73.13-.6.16-1.33.26-1.33.06,0,.06.26.28.64.07.12.39.66.77.64.08,0,.15-.03.19-.06-.04-.12-.09-.31-.1-.53-.02-.26-.03-.49.09-.76.08-.19.21-.37.17-.63,0,0,0-.03-.01-.06-.12-.46-.82-1-.8-1.02s.34.17,1.01.62c0,0,1.02.7,1.4,1.29h0s1.2,1.56,1.02,3.17h0Z"/>
  </g>
  <g>
    <circle class="st5" cx="56.14" cy="24.65" r="15.54"/>
    <path class="st5" d="M84.11,53.94v.83c0-.81-.08-1.61-.24-2.38.16.49.24,1.01.24,1.55Z"/>
    <path class="st5" d="M84.11,54.77v32.8c0,2.8-2.3,5.09-5.1,5.09s-5.09-2.29-5.09-5.09v-20.94c-.59.09-1.19.14-1.81.14h-1.02v37.87h-.05c.04.21.05.42.05.64v33.62c0,2.8-2.29,5.1-5.1,5.1h-2.85c-2.8,0-5.09-2.3-5.09-5.1v-33.62c0-.22,0-.43.05-.64h-3.93c.04.21.05.42.05.64v33.62c0,2.8-2.29,5.1-5.09,5.1h-2.85c-2.81,0-5.1-2.3-5.1-5.1v-33.62c0-.22,0-.43.05-.64h-.05v-37.87h-1.02c-.62,0-1.22-.05-1.81-.14v21.75c0,2.8-2.29,5.09-5.09,5.09s-5.1-2.29-5.1-5.09v-33.66c.01-3.28,1.36-6.26,3.52-8.43,2.18-2.17,5.18-3.52,8.48-3.52h31.95c5.77,0,10.63,4.13,11.75,9.59v.03c.16.77.24,1.57.24,2.38h.01Z"/>
  </g>
  <circle class="st10" cx="63.39" cy="20.52" r=".26"/>
  <g>
    <circle class="st7" cx="63.89" cy="21.96" r="4.6"/>
    <g>
      <path class="st0" d="M67.91,22.06c-2.33-2.27-5.93-2.37-8.03-.2,2.22,2.28,5.81,2.37,8.03.2"/>
      <circle class="st0" cx="63.89" cy="21.96" r="1.61"/>
      <circle class="st2" cx="63.89" cy="21.96" r="1.06"/>
      <circle class="st10" cx="64.54" cy="21.2" r=".3"/>
    </g>
  </g>
  <g>
    <circle class="st7" cx="78.92" cy="84.26" r="4.6"/>
    <path class="st6" d="M81.31,85.82c-.04.31-.1.68-.4,1.06-.37.48-1.15.88-2.03.87-1.29,0-2.24-.88-2.39-1.56-.04-.16-.03-.33-.03-.38.01-.45.19-.67.38-1.23.1-.29.15-.51.2-.73.13-.6.16-1.33.26-1.33.06,0,.06.26.28.64.07.12.39.66.77.64.08,0,.15-.03.19-.06-.04-.12-.09-.31-.1-.53-.02-.26-.03-.49.09-.76.08-.19.21-.37.17-.63,0,0,0-.03-.01-.06-.12-.46-.82-1-.8-1.02s.34.17,1.01.62c0,0,1.02.7,1.4,1.29h0s1.2,1.56,1.02,3.17h0Z"/>
    <path class="st1" d="M77.51,84.1c-.06.03.05.17.08.38.04.29-.12.46-.28.83-.09.2-.21.48-.23.78,0,.18,0,.77.56,1.22.15.12.59.43,1.25.45.62.02,1.15-.23,1.47-.53.72-.67.38-1.66.3-1.89-.12-.35-.21-.31-.59-1.14-.28-.62-.39-.89-.39-.89-.21-.5-.28-.7-.34-.69-.07,0-.03.36-.08.99-.07.87-.21.97-.3,1.01-.24.1-.61-.06-.81-.14-.4-.17-.58-.41-.66-.37h.02Z"/>
    <path class="st12" d="M77.96,85c-.12.06.07.32-.04.75-.08.34-.25.36-.33.71-.04.17-.12.47.05.75.22.37.78.56,1.25.56.71,0,1.27-.45,1.47-.89.25-.53-.04-1.04-.09-1.14-.1-.19-.15-.17-.28-.38-.36-.57-.26-1.11-.32-1.11-.09,0-.05,1.26-.53,1.37-.4.09-.97-.71-1.18-.62Z"/>
    <path class="st4" d="M81.36,85.82c-.04.31-.1.68-.4,1.06-.37.48-1.15.88-2.03.87-1.29,0-2.24-.88-2.39-1.56-.04-.16-.03-.33-.03-.38.01-.45.19-.67.38-1.23.1-.29.15-.51.2-.73.13-.6.16-1.33.26-1.33.06,0,.06.26.28.64.07.12.39.66.77.64.08,0,.15-.03.19-.06-.04-.12-.09-.31-.1-.53-.02-.26-.03-.49.09-.76.08-.19.21-.37.17-.63,0,0,0-.03-.01-.06-.12-.46-.82-1-.8-1.02s.34.17,1.01.62c0,0,1.02.7,1.4,1.29h0s1.2,1.56,1.02,3.17h0Z"/>
  </g>
  <g>
    <circle class="st7" cx="56.61" cy="56.28" r="7.29"/>
    <path class="st3" d="M55.87,50.95c-.1.17.05.31.16.77.1.38.07.84.03,1.78-.04.86-.1,1.02-.19,1.18-.08.13-.28.49-.67.6-.38.11-.63-.1-.8.06-.15.14-.16.48,0,.65.34.37,1.57.13,1.94-.53.12-.21.15-.46.29-.48s.24.2.41.38c.49.54,1.45.69,1.73.4.13-.13.14-.39.04-.52-.04-.05-.09-.08-.4-.16-.35-.08-.41-.07-.53-.11-.28-.09-.45-.31-.55-.45-.5-.66-.44-1.93-.15-2.89.1-.32.19-.52.09-.69-.23-.38-1.2-.37-1.4,0h0Z"/>
    <path class="st6" d="M54.3,52.9c.53.05.79,1.19,1.13,2.64.41,1.78.73,3.13.13,3.73s-1.36-.15-2.67.58c-.66.37-.85.77-1.12.66-.53-.22-.41-2.03-.23-2.83.07-.3.18-.66.63-1.59,1.03-2.11,1.58-3.24,2.13-3.19Z"/>
    <path class="st6" d="M58.92,52.79c-.53.05-.79,1.19-1.13,2.64-.41,1.78-.73,3.13-.13,3.73s1.36-.15,2.67.58c.66.37.85.77,1.12.66.53-.22.41-2.03.23-2.83-.07-.3-.18-.66-.63-1.59-1.03-2.11-1.58-3.24-2.13-3.19Z"/>
  </g>
</svg>